<svg width="32" height="32" viewBox="0 0 200 200" xmlns="http://www.w3.org/2000/svg">
    <rect x="3" y="3" rx="20" ry="20" width="194" height="194"
        stroke="#5C7829" fill="none" stroke-width="6" fill-opacity="0.5" />

    <path d="M10 45 L30 45
        A20 20 0 0 1 45 60
        L45 70
        A5 5 0 0 0 50 75
        L60 75
        A5 5 0 0 0 65 70
        L65 30
        A20 20 0 0 1 80 15
        L90 15
        A20 20 0 0 1 105 30
        L105 70
        A5 5 0 0 0 110 75
        L120 75
        A5 5 0 0 0 125 70
        L125 30
        A20 20 0 0 1 140 15
        L150 15
        A20 20 0 0 1 165 30
        L165 40
        A5 5 0 0 0 170 45
        L190 45" 
        stroke="#087099" fill="none" stroke-width="4" fill-opacity="0.5" />
        
    <path d="M10 55 L30 55
        A5 5 0 0 1 35 60
        L35 70
        A20 20 0 0 0 50 85
        L60 85
        A20 20 0 0 0 75 70
        L75 30
        A5 5 0 0 1 80 25
        L90 25
        A5 5 0 0 1 95 30
        L95 70
        A20 20 0 0 0 110 85
        L120 85
        A20 20 0 0 0 135 70
        L135 30
        A5 5 0 0 1 140 25
        L150 25
        A5 5 0 0 1 155 30
        L155 40
        A20 20 0 0 0 170 55
        L190 55" 
        stroke="#087099" fill="none" stroke-width="4" fill-opacity="0.5" />

    <path d="M10 150 L35 150 
        A5 5 0 0 0 40 145
        L40 120
        A5 5 0 0 1 45 115
        L55 115
        A5 5 0 0 1 60 120
        L60 180
        A5 5 0 0 0 65 185
        L75 185
        A5 5 0 0 0 80 180
        L80 120
        A5 5 0 0 1 85 115
        L95 115
        A5 5 0 0 1 100 120
        L100 180
        A5 5 0 0 0 105 185
        L115 185
        A5 5 0 0 0 120 180
        L120 120
        A5 5 0 0 1 125 115
        L135 115
        A5 5 0 0 1 140 120
        L140 180
        A5 5 0 0 0 145 185
        L155 185
        A5 5 0 0 0 160 180
        L160 155
        A5 5 0 0 1 165 150
        L190 150" 
        stroke="#CC3333" fill="none" stroke-width="10" fill-opacity="0.5" />

    
</svg>